<svg xmlns="http://www.w3.org/2000/svg" version="1.1" xmlns:xlink="http://www.w3.org/1999/xlink" xmlns:svgjs="http://svgjs.dev/svgjs" width="340" height="194.82000000000002"><g><svg viewBox="0 0 395.52 221.59097659655407" height="194.82000000000002" width="340" xmlns="http://www.w3.org/2000/svg" version="1.1" xmlns:xlink="http://www.w3.org/1999/xlink" xmlns:svgjs="http://svgjs.com/svgjs" x="0" y="0" viewbox="0 0 340 194.82000000000002"><g><svg viewBox="0 0 395.52 221.59097659655407" height="221.59097659655407" width="395.52"><g transform="matrix(1,0,0,1,0,112.97293454628212)"><svg viewBox="0 0 395.52 108.61804205027197" height="108.61804205027197" width="395.52"><g id="textblocktransform"><svg viewBox="0 0 395.52 108.61804205027197" height="108.61804205027197" width="395.52" id="textblock"><g><svg viewBox="0 0 395.52 66.79156756027923" height="66.79156756027923" width="395.52"><g transform="matrix(1,0,0,1,0,0)"><svg width="395.52" viewBox="2.7525196075439453 -17.568408966064453 249.0509490966797 42.057350158691406" height="66.79156756027923" data-palette-color="#ba3b0a"><path d="M28.178-13.112v0l-0.455 7.929-2.137-0.172-0.952-5.779c-0.244-0.109-0.531-0.205-0.86-0.289-0.331-0.078-0.624-0.142-0.88-0.192v0l-1.718-0.335c-0.314-0.061-0.743-0.145-1.286-0.25-0.537-0.105-1.031-0.184-1.481-0.238v0c-0.048 0.249-0.174 0.842-0.378 1.78-0.195 0.933-0.414 2.018-0.655 3.255-0.242 1.243-0.474 2.434-0.696 3.573v0l-1.254 6.439c-0.39 2.002-0.713 3.746-0.969 5.231-0.262 1.484-0.439 2.462-0.53 2.933v0l3.941 1.369-0.509 1.877-12.161-2.369 0.283-1.922 4.107 0.2c0.092-0.471 0.298-1.443 0.619-2.916 0.321-1.472 0.676-3.21 1.067-5.212v0l1.254-6.439c0.222-1.139 0.454-2.33 0.697-3.573 0.241-1.237 0.453-2.323 0.635-3.258 0.184-0.942 0.283-1.541 0.299-1.796v0c-0.406-0.113-0.877-0.222-1.414-0.327-0.543-0.106-0.972-0.189-1.286-0.25v0l-1.865-0.364c-0.255-0.05-0.535-0.097-0.838-0.143-0.305-0.039-0.607-0.057-0.906-0.054v0l-3.013 5.057-2.084-0.701 2.555-7.52c0.34 0.1 0.709 0.196 1.105 0.286 0.389 0.096 0.78 0.199 1.173 0.31 0.394 0.104 0.781 0.193 1.16 0.267 0.38 0.074 0.762 0.149 1.149 0.224v0l13.623 2.654c0.353 0.069 0.73 0.142 1.129 0.22 0.393 0.076 0.785 0.139 1.176 0.189 0.386 0.041 0.78 0.091 1.183 0.149 0.395 0.063 0.786 0.116 1.172 0.157zM36.347 17.155l-9.841-1.468 0.16-1.746 3.085-0.278c0.118-0.34 0.237-0.868 0.357-1.584 0.121-0.723 0.289-1.689 0.504-2.898 0.215-1.215 0.454-2.703 0.716-4.463v0l0.896-6.003c0.162-1.088 0.33-2.256 0.503-3.504 0.167-1.256 0.331-2.468 0.493-3.638 0.154-1.17 0.284-2.199 0.39-3.086 0.098-0.882 0.166-1.451 0.204-1.708v0l-3.488-1.016 0.14-1.547 7.058-0.958 0.82 0.81c-0.181 0.984-0.362 1.972-0.543 2.962-0.181 0.984-0.364 2.052-0.549 3.204-0.192 1.151-0.401 2.438-0.627 3.86-0.232 1.421-0.49 3.078-0.772 4.97v0l0.141 0.072c1.27-1.057 2.489-1.775 3.658-2.154 1.17-0.385 2.397-0.481 3.683-0.289v0c1.18 0.176 2.246 0.645 3.197 1.407 0.95 0.769 1.66 1.815 2.13 3.139 0.475 1.331 0.569 2.96 0.282 4.885v0l-0.774 5.183c-0.172 1.154-0.294 2.194-0.364 3.12-0.076 0.919-0.108 1.558-0.094 1.917v0l2.869 1.167-0.357 1.716-9.653-1.441 0.119-1.752 2.887-0.307c0.071-0.252 0.152-0.567 0.243-0.945 0.09-0.378 0.187-0.869 0.29-1.473 0.111-0.61 0.231-1.347 0.361-2.211v0l0.773-5.182c0.206-1.378 0.138-2.527-0.203-3.448-0.336-0.913-0.843-1.626-1.521-2.138-0.672-0.511-1.426-0.83-2.264-0.955v0c-1.055-0.157-2.069-0.046-3.043 0.335-0.974 0.38-1.868 0.999-2.683 1.854v0l-1.076 7.21c-0.219 1.47-0.375 2.691-0.466 3.661-0.097 0.963-0.131 1.578-0.103 1.845v0l2.82 1.159zM63.759 21.12v0c-1.862-0.205-3.506-0.808-4.932-1.81-1.418-1.008-2.476-2.338-3.173-3.991-0.696-1.659-0.928-3.549-0.694-5.669v0c0.251-2.286 0.936-4.216 2.055-5.791 1.118-1.567 2.483-2.725 4.094-3.473 1.612-0.755 3.285-1.021 5.017-0.797v0c2.508 0.309 4.382 1.354 5.621 3.133 1.233 1.779 1.683 4.182 1.35 7.211v0l-0.095 0.865-14.811-1.628 0.233-2.117 11.63 1.278-0.596 0.568 0.112-1.014c0.202-1.836-0.052-3.306-0.763-4.409-0.71-1.104-1.808-1.738-3.292-1.901v0c-0.895-0.098-1.792 0.071-2.692 0.509-0.893 0.438-1.658 1.169-2.293 2.192-0.629 1.024-1.033 2.355-1.213 3.991v0l-0.065 0.587c-0.29 2.637 0.133 4.766 1.27 6.387 1.143 1.621 2.745 2.545 4.806 2.772v0c1.16 0.127 2.204 0.024 3.133-0.31 0.936-0.34 1.878-0.977 2.825-1.913v0l1.081 1.246c-1.085 1.571-2.362 2.691-3.83 3.361-1.475 0.669-3.068 0.91-4.778 0.723zM109.192 16.862l-0.879-0.044 0.538-10.866c0.095-1.911 0.164-3.439 0.207-4.586 0.044-1.153 0.053-2.01 0.027-2.571-0.019-0.568-0.042-0.903-0.07-1.005v0l-3.262-0.843 0.231-1.84 9.219 0.456 0.058 1.855-3.04 0.531c-0.005 0.1-0.048 0.431-0.129 0.995-0.074 0.557-0.157 1.417-0.248 2.58-0.091 1.164-0.183 2.684-0.276 4.562v0l-0.572 11.546c-0.051 1.032-0.103 2.081-0.156 3.146-0.053 1.065-0.091 2.165-0.113 3.299v0l-2.178-0.108-16.659-24.885 1.059 0.053-0.644 12.994c-0.096 1.938-0.156 3.49-0.18 4.657-0.024 1.167-0.027 2.034-0.009 2.602 0.025 0.569 0.051 0.917 0.078 1.046v0l3.263 0.842-0.242 1.84-9.308-0.461-0.059-1.855 2.99-0.533c0.073-0.123 0.14-0.46 0.201-1.011 0.06-0.544 0.136-1.405 0.228-2.582 0.092-1.184 0.186-2.744 0.282-4.682v0l0.41-8.29c0.072-1.458 0.115-2.658 0.128-3.598 0.013-0.941 0.016-1.668 0.008-2.182-0.008-0.521-0.04-0.88-0.097-1.076v0l-2.922-0.826 0.241-1.84 6.642 0.329zM125.832 24.462v0c-1.293-0.004-2.442-0.268-3.447-0.791-1.005-0.523-1.789-1.189-2.354-1.998-0.557-0.809-0.834-1.649-0.831-2.523v0c0.004-1.073 0.353-1.965 1.049-2.677 0.696-0.704 1.871-1.33 3.526-1.878v0l7.389-2.455 0.008-2.47c0.003-0.813-0.238-1.551-0.723-2.212-0.484-0.668-1.129-1.197-1.934-1.587-0.805-0.389-1.711-0.586-2.718-0.589v0c-0.807-0.003-1.357 0.165-1.652 0.504-0.294 0.339-0.473 1.008-0.537 2.009v0l-0.107 2.039c-1.168 0.256-2.154 0.213-2.959-0.13-0.812-0.343-1.217-0.904-1.215-1.684v0c0.002-0.547 0.247-1.096 0.736-1.647 0.489-0.545 1.12-1.066 1.895-1.564 0.782-0.504 1.62-0.931 2.515-1.281 0.888-0.357 1.769-0.597 2.642-0.721v0c2.367 0.008 4.275 0.638 5.724 1.889 1.456 1.252 2.197 2.914 2.223 4.987v0l-0.128 8.16c-0.002 0.58 0.019 1.17 0.064 1.77 0.045 0.6 0.116 1.044 0.216 1.331v0l3.108 0.601-0.005 1.5-2.383 0.871c-0.454 0.192-0.874 0.334-1.262 0.426-0.394 0.099-0.717 0.148-0.97 0.147v0c-1.007-0.003-1.655-0.572-1.944-1.707v0l-0.524-1.901 0.73 0.002c-1.077 1.196-2.11 2.093-3.099 2.69-0.989 0.597-2 0.893-3.033 0.889zM127.152 21.597v0c0.747 0.003 1.451-0.165 2.111-0.503 0.668-0.338 1.293-0.859 1.876-1.564v0l0.017-5.1-5.445 1.432c-0.774 0.191-1.332 0.499-1.673 0.924-0.341 0.419-0.513 0.952-0.516 1.598v0c-0.003 0.807 0.358 1.545 1.083 2.214 0.724 0.662 1.573 0.995 2.547 0.999zM152.511 23.631l-11.215 0.357-0.195-1.745 2.985-0.825c0.028-0.161 0.049-0.445 0.063-0.853 0.021-0.401 0.029-0.968 0.026-1.701-0.01-0.727-0.031-1.606-0.064-2.639v0l-0.07-3.79c-0.034-1.066-0.108-2.124-0.221-3.175-0.113-1.05-0.229-1.864-0.348-2.44v0l-3.13-0.581-0.051-1.609 6.45-1.996 0.701 0.658-0.06 4.084 0.141 0.036c0.913-1.903 1.853-3.204 2.817-3.902 0.965-0.691 1.901-1.051 2.808-1.079v0c0.746-0.024 1.375 0.15 1.887 0.52 0.512 0.371 0.779 0.912 0.802 1.625v0c0.024 0.746-0.224 1.338-0.744 1.775-0.52 0.437-1.183 0.668-1.989 0.693v0c-0.586 0.019-1.15-0.094-1.691-0.336-0.541-0.243-1.062-0.583-1.564-1.021v0l0.889 0.262c-0.574 0.412-1.123 0.983-1.646 1.713-0.531 0.724-1.023 1.597-1.478 2.618v0l0.194 4.516c0.059 0.805 0.119 1.637 0.179 2.496 0.06 0.852 0.119 1.644 0.175 2.376 0.05 0.725 0.097 1.264 0.142 1.616v0l4.248 0.495zM170.464 22.65l-11.199 0.684-0.246-1.738 2.96-0.912c0.024-0.162 0.036-0.446 0.038-0.854 0.009-0.401 0.001-0.969-0.024-1.702-0.031-0.726-0.078-1.605-0.141-2.636v0l-0.182-3.786c-0.065-1.065-0.17-2.12-0.313-3.167-0.144-1.046-0.284-1.856-0.419-2.429v0l-3.146-0.489-0.098-1.607 6.389-2.184 0.72 0.638 0.059 4.084 0.142 0.031c0.857-1.929 1.758-3.257 2.702-3.982 0.945-0.719 1.869-1.106 2.775-1.162v0c0.745-0.046 1.379 0.109 1.901 0.465 0.523 0.355 0.806 0.889 0.85 1.601v0c0.046 0.745-0.185 1.344-0.692 1.796-0.507 0.452-1.163 0.702-1.968 0.751v0c-0.586 0.036-1.152-0.06-1.701-0.286-0.548-0.227-1.079-0.552-1.592-0.975v0l0.896 0.236c-0.562 0.428-1.093 1.015-1.595 1.76-0.509 0.739-0.976 1.626-1.401 2.661v0l0.326 4.508c0.082 0.803 0.167 1.633 0.252 2.49 0.085 0.85 0.167 1.64 0.245 2.369 0.071 0.724 0.134 1.261 0.189 1.611v0l4.26 0.371zM184.175 21.889v0c-1.288 0.118-2.457-0.035-3.507-0.461-1.05-0.426-1.894-1.014-2.532-1.765-0.631-0.752-0.987-1.563-1.067-2.433v0c-0.098-1.069 0.165-1.99 0.79-2.764 0.626-0.767 1.736-1.502 3.333-2.204v0l7.122-3.145-0.227-2.46c-0.074-0.81-0.384-1.521-0.929-2.134-0.546-0.619-1.238-1.085-2.076-1.395-0.839-0.311-1.759-0.421-2.762-0.329v0c-0.803 0.074-1.335 0.293-1.596 0.659-0.261 0.365-0.376 1.049-0.344 2.05v0l0.087 2.041c-1.138 0.366-2.124 0.416-2.958 0.151-0.841-0.264-1.297-0.785-1.369-1.561v0c-0.05-0.544 0.142-1.114 0.576-1.71 0.435-0.589 1.014-1.168 1.738-1.736 0.73-0.576 1.524-1.081 2.381-1.515 0.85-0.44 1.704-0.763 2.563-0.968v0c2.357-0.217 4.316 0.229 5.877 1.337 1.568 1.108 2.463 2.692 2.686 4.754v0l0.648 8.135c0.053 0.578 0.13 1.163 0.231 1.756 0.101 0.593 0.215 1.028 0.341 1.305v0l3.151 0.302 0.137 1.494-2.289 1.094c-0.434 0.234-0.839 0.415-1.215 0.544-0.383 0.136-0.7 0.215-0.953 0.238v0c-1.002 0.092-1.702-0.413-2.097-1.514v0l-0.702-1.844 0.727-0.067c-0.959 1.293-1.902 2.284-2.83 2.972-0.928 0.688-1.906 1.079-2.935 1.173zM185.217 18.912v0c0.744-0.068 1.428-0.302 2.055-0.701 0.633-0.4 1.206-0.978 1.718-1.735v0l-0.467-5.079-5.284 1.942c-0.752 0.263-1.278 0.623-1.578 1.079-0.3 0.449-0.421 0.996-0.361 1.64v0c0.074 0.803 0.503 1.504 1.287 2.101 0.784 0.591 1.661 0.842 2.63 0.753zM213.158 13.953l1.016 1.09c-0.473 1.136-1.201 2.069-2.183 2.799-0.982 0.73-2.052 1.169-3.209 1.317v0c-1.931 0.247-3.604-0.144-5.019-1.173-1.422-1.028-2.284-2.729-2.588-5.103v0l-1.331-11.524-3.373 0.431-0.129-1.012 5.498-6.439 0.913-0.117 0.609 5.558 1.474 11.849c0.214 1.673 0.732 2.864 1.555 3.571 0.824 0.715 1.894 0.988 3.21 0.82v0c0.741-0.095 1.406-0.334 1.995-0.719 0.582-0.39 1.102-0.84 1.562-1.348zM210.785-0.039l-9.007 1.15-0.308-2.41 9.007-1.151zM226.636 16.484v0c-2.08 0.331-3.966 0.172-5.656-0.478-1.696-0.648-3.104-1.71-4.223-3.186-1.12-1.482-1.845-3.261-2.175-5.334v0c-0.346-2.173-0.175-4.134 0.512-5.884 0.694-1.751 1.776-3.202 3.246-4.354 1.471-1.152 3.164-1.88 5.08-2.185v0c1.988-0.316 3.787-0.15 5.395 0.498 1.608 0.642 2.955 1.687 4.043 3.134 1.082 1.455 1.791 3.236 2.126 5.342v0c0.321 2.015 0.164 3.916-0.47 5.705-0.634 1.788-1.634 3.284-3.002 4.487-1.361 1.202-2.987 1.954-4.876 2.255zM226.761 14.155v0c1.086-0.173 1.975-0.652 2.668-1.437 0.7-0.78 1.18-1.791 1.441-3.034 0.256-1.236 0.264-2.604 0.025-4.105v0c-0.438-2.752-1.359-4.894-2.764-6.426-1.404-1.525-3.034-2.14-4.89-1.844v0c-1.725 0.274-2.994 1.205-3.809 2.793-0.814 1.588-1.03 3.58-0.649 5.976v0c0.285 1.791 0.817 3.33 1.595 4.617 0.779 1.287 1.726 2.233 2.842 2.839 1.11 0.613 2.291 0.82 3.541 0.621zM251.552 11.56l-11.008 2.167-0.476-1.69 2.813-1.297c0.002-0.163-0.023-0.447-0.076-0.852-0.045-0.399-0.128-0.96-0.25-1.683-0.127-0.716-0.291-1.58-0.49-2.594v0l-0.683-3.729c-0.206-1.047-0.45-2.079-0.732-3.097-0.282-1.018-0.528-1.802-0.738-2.351v0l-3.183-0.067-0.311-1.579 6.042-3.014 0.798 0.536 0.602 4.04 0.145 0.012c0.593-2.026 1.309-3.461 2.149-4.306 0.841-0.838 1.706-1.345 2.595-1.52v0c0.733-0.144 1.382-0.075 1.947 0.208 0.565 0.283 0.917 0.774 1.054 1.474v0c0.144 0.733-0.005 1.356-0.447 1.871-0.442 0.515-1.059 0.851-1.85 1.007v0c-0.576 0.113-1.15 0.094-1.724-0.058-0.574-0.152-1.143-0.404-1.708-0.755v0l0.92 0.115c-0.5 0.499-0.949 1.152-1.348 1.957-0.406 0.8-0.751 1.741-1.034 2.823v0l0.922 4.425c0.189 0.785 0.382 1.596 0.581 2.434 0.198 0.831 0.383 1.603 0.558 2.316 0.167 0.708 0.3 1.232 0.401 1.572v0l4.272-0.199z" opacity="1" transform="matrix(1,0,0,1,0,0)" fill="#ba3b0a" class="wordmark-text-0" data-fill-palette-color="primary" id="text-0"></path></svg></g></svg></g><g transform="matrix(1,0,0,1,118.31980799999998,88.56603004032996)"><svg viewBox="0 0 158.88038400000002 20.052012009942008" height="20.052012009942008" width="158.88038400000002"><g transform="matrix(1,0,0,1,0,0)"><svg width="158.88038400000002" viewBox="3.450000047683716 -35.70000076293945 362.0699768066406 45.70000076293945" height="20.052012009942008" data-palette-color="#ba3b0a"><path d="M24.75-0.55Q25.65-0.15 26.35 0.65 27.05 1.45 27.8 2.8L27.8 2.8 30.7 8.2 27.1 10 23.45 3.25Q21.95 0.5 18.15 0.4L18.15 0.4Q13.7 0.25 10.4-1.75 7.1-3.75 5.28-7.45 3.45-11.15 3.45-16.15L3.45-16.15Q3.45-22.05 5.48-26.48 7.5-30.9 11.23-33.3 14.95-35.7 19.9-35.7L19.9-35.7Q24.75-35.7 28.3-33.7 31.85-31.7 33.73-27.95 35.6-24.2 35.6-19.05L35.6-19.05Q35.6-12.15 32.77-7.25 29.95-2.35 24.75-0.55L24.75-0.55ZM7.65-16.1Q7.65-9.85 10.65-6.48 13.65-3.1 19.15-3.1L19.15-3.1Q22.95-3.1 25.7-5.03 28.45-6.95 29.93-10.55 31.4-14.15 31.4-19.1L31.4-19.1Q31.4-25.4 28.4-28.78 25.4-32.15 19.9-32.15L19.9-32.15Q16.1-32.15 13.35-30.23 10.6-28.3 9.13-24.7 7.65-21.1 7.65-16.1L7.65-16.1ZM52.7-24.95Q61.35-24.95 61.35-16.65L61.35-16.65Q61.35-15.75 61.3-15.25L61.3-15.25 60.1 0 56.15 0 56.45-3.9Q55.35-1.8 53.42-0.73 51.5 0.35 49.05 0.35L49.05 0.35Q45.4 0.35 43.07-1.63 40.75-3.6 40.75-6.65L40.75-6.65Q40.75-9.4 42.2-11.03 43.65-12.65 46.85-13.4 50.05-14.15 55.5-14.15L55.5-14.15 57.3-14.15 57.4-15.6 57.45-16.55Q57.45-19.15 56.2-20.38 54.95-21.6 52.25-21.6L52.25-21.6Q48.15-21.6 44-19L44-19 42.9-22Q44.75-23.3 47.45-24.13 50.15-24.95 52.7-24.95L52.7-24.95ZM49.9-2.85Q52.75-2.85 54.75-4.85 56.75-6.85 56.95-10L56.95-10 57.05-11.55 55.65-11.55Q51.25-11.55 48.92-11.08 46.6-10.6 45.72-9.65 44.85-8.7 44.85-7L44.85-7Q44.85-5.1 46.2-3.98 47.55-2.85 49.9-2.85L49.9-2.85ZM76.95-4.45L86.75-24.3 90.9-24.3 78.5 0 74.7 0 66.15-24.3 70.3-24.3 76.95-4.45ZM114.29-11.55L96.44-11.55 96.44-11.35Q96.44-7.35 98.42-5.15 100.39-2.95 104.14-2.95L104.14-2.95Q108.59-2.95 112.09-5.8L112.09-5.8 113.24-2.8Q111.74-1.35 109.17-0.5 106.59 0.35 103.94 0.35L103.94 0.35Q98.64 0.35 95.52-2.85 92.39-6.05 92.39-11.45L92.39-11.45Q92.39-15.4 93.89-18.48 95.39-21.55 98.09-23.25 100.79-24.95 104.39-24.95L104.39-24.95Q109.04-24.95 111.74-22.18 114.44-19.4 114.44-14L114.44-14Q114.44-12.85 114.29-11.55L114.29-11.55ZM104.54-21.8Q101.19-21.8 99.19-19.83 97.19-17.85 96.64-14.15L96.64-14.15 110.84-14.15Q110.99-17.95 109.29-19.88 107.59-21.8 104.54-21.8L104.54-21.8ZM133.09-24.95Q137.19-24.95 139.34-22.8 141.49-20.65 141.49-16.55L141.49-16.55Q141.49-15.65 141.44-15.2L141.44-15.2 140.24 0 136.19 0 137.39-14.95Q137.44-15.3 137.44-16L137.44-16Q137.44-21.55 132.09-21.55L132.09-21.55Q128.69-21.55 126.69-19.53 124.69-17.5 124.39-13.95L124.39-13.95 123.29 0 119.24 0 121.19-24.35 125.14-24.35 124.84-20.6Q126.09-22.65 128.24-23.8 130.39-24.95 133.09-24.95L133.09-24.95ZM167.94-35.25L171.99-35.25 169.19 0 165.19 0 165.49-3.8Q164.24-1.85 162.11-0.75 159.99 0.35 157.49 0.35L157.49 0.35Q154.44 0.35 152.09-1.07 149.74-2.5 148.44-5.15 147.14-7.8 147.14-11.35L147.14-11.35Q147.14-15.4 148.56-18.48 149.99-21.55 152.59-23.25 155.19-24.95 158.59-24.95L158.59-24.95Q161.44-24.95 163.56-23.7 165.69-22.45 166.74-20.25L166.74-20.25 167.94-35.25ZM158.54-3Q162.14-3 164.19-5.73 166.24-8.45 166.24-13.15L166.24-13.15Q166.24-17.25 164.36-19.43 162.49-21.6 158.94-21.6L158.94-21.6Q155.39-21.6 153.31-18.9 151.24-16.2 151.24-11.5L151.24-11.5Q151.24-7.45 153.16-5.23 155.09-3 158.54-3L158.54-3ZM180.79 0L176.74 0 178.69-24.35 182.74-24.35 180.79 0ZM178.69-30.35L179.09-34.9 183.99-34.9 183.64-30.35 178.69-30.35ZM196.88 0.35Q194.08 0.35 191.53-0.48 188.98-1.3 187.03-2.8L187.03-2.8 188.63-5.8Q190.63-4.3 192.63-3.6 194.63-2.9 196.98-2.9L196.98-2.9Q202.83-2.9 202.83-6.5L202.83-6.5Q202.83-8.15 201.43-8.95 200.03-9.75 197.03-10.65L197.03-10.65Q194.43-11.4 192.86-12.1 191.28-12.8 190.16-14.13 189.03-15.45 189.03-17.65L189.03-17.65Q189.03-20.95 191.68-22.95 194.33-24.95 198.68-24.95L198.68-24.95Q201.28-24.95 203.61-24.1 205.93-23.25 207.48-21.75L207.48-21.75 205.88-18.8Q202.58-21.65 198.68-21.65L198.68-21.65Q195.93-21.65 194.46-20.68 192.98-19.7 192.98-17.85L192.98-17.85Q192.98-16.2 194.41-15.4 195.83-14.6 198.73-13.75L198.73-13.75Q201.28-13 202.88-12.3 204.48-11.6 205.61-10.25 206.73-8.9 206.73-6.7L206.73-6.7Q206.73-3.45 204.03-1.55 201.33 0.35 196.88 0.35L196.88 0.35ZM226.18-24.95Q230.28-24.95 232.43-22.8 234.58-20.65 234.58-16.55L234.58-16.55Q234.58-15.65 234.53-15.2L234.53-15.2 233.33 0 229.28 0 230.48-14.95Q230.53-15.3 230.53-16L230.53-16Q230.53-21.55 225.18-21.55L225.18-21.55Q221.78-21.55 219.78-19.53 217.78-17.5 217.48-13.95L217.48-13.95 216.38 0 212.33 0 215.13-35.25 219.18-35.25 217.98-20.7Q219.28-22.75 221.41-23.85 223.53-24.95 226.18-24.95L226.18-24.95ZM269.38 0.4Q264.78 0.4 261.38-1.6 257.98-3.6 256.13-7.33 254.28-11.05 254.28-16.15L254.28-16.15Q254.28-22.05 256.35-26.45 258.43-30.85 262.25-33.25 266.08-35.65 271.28-35.65L271.28-35.65Q275.13-35.65 278.3-34.52 281.48-33.4 283.73-31.2L283.73-31.2 281.93-28.1Q279.58-30.25 277.1-31.18 274.63-32.1 271.33-32.1L271.33-32.1Q265.28-32.1 261.9-27.85 258.53-23.6 258.53-16.1L258.53-16.1Q258.53-9.9 261.48-6.53 264.43-3.15 269.93-3.15L269.93-3.15Q275.53-3.15 280.28-7.2L280.28-7.2 281.63-4.05Q279.28-1.85 276.18-0.73 273.08 0.4 269.38 0.4L269.38 0.4ZM297.77 0.35Q294.37 0.35 291.8-1.1 289.22-2.55 287.85-5.23 286.47-7.9 286.47-11.45L286.47-11.45Q286.47-15.5 287.95-18.55 289.42-21.6 292.1-23.28 294.77-24.95 298.32-24.95L298.32-24.95Q301.77-24.95 304.32-23.5 306.87-22.05 308.27-19.35 309.67-16.65 309.67-13.1L309.67-13.1Q309.67-9.05 308.2-6 306.72-2.95 304.02-1.3 301.32 0.35 297.77 0.35L297.77 0.35ZM297.82-3Q301.47-3 303.5-5.75 305.52-8.5 305.52-13.25L305.52-13.25Q305.52-17.25 303.65-19.43 301.77-21.6 298.32-21.6L298.32-21.6Q294.67-21.6 292.62-18.8 290.57-16 290.57-11.3L290.57-11.3Q290.57-7.25 292.42-5.13 294.27-3 297.82-3L297.82-3ZM328.82-24.85L330.17-24.95 330.17-21.45 327.42-21.2Q323.77-20.85 321.97-19.05 320.17-17.25 319.92-13.9L319.92-13.9 318.77 0 314.72 0 316.67-24.3 320.57-24.3 320.27-20.4Q321.57-22.45 323.65-23.53 325.72-24.6 328.82-24.85L328.82-24.85ZM346.07-24.95Q349.12-24.95 351.47-23.5 353.82-22.05 355.12-19.38 356.42-16.7 356.42-13.15L356.42-13.15Q356.42-9.15 354.99-6.08 353.57-3 350.97-1.33 348.37 0.35 344.97 0.35L344.97 0.35Q342.12 0.35 339.99-0.88 337.87-2.1 336.77-4.3L336.77-4.3 335.72 9 331.67 9 334.27-24.35 338.32-24.35 338.02-20.65Q339.22-22.65 341.37-23.8 343.52-24.95 346.07-24.95L346.07-24.95ZM344.62-3Q348.17-3 350.22-5.7 352.27-8.4 352.27-13.15L352.27-13.15Q352.27-17.15 350.37-19.38 348.47-21.6 345.02-21.6L345.02-21.6Q341.42-21.6 339.37-18.88 337.32-16.15 337.32-11.4L337.32-11.4Q337.32-7.3 339.19-5.15 341.07-3 344.62-3L344.62-3ZM360.02 0L360.42-5.1 365.52-5.1 365.12 0 360.02 0Z" opacity="1" transform="matrix(1,0,0,1,0,0)" fill="#ba3b0a" class="slogan-text-1" data-fill-palette-color="secondary" id="text-1"></path></svg></g></svg></g></svg></g></svg></g><g transform="matrix(1,0,0,1,144.89986480048995,0)"><svg viewBox="0 0 105.72027039902007 108.61804205027197" height="108.61804205027197" width="105.72027039902007"><g><svg xmlns="http://www.w3.org/2000/svg" xmlns:xlink="http://www.w3.org/1999/xlink" version="1.1" x="0" y="0" viewBox="3 1.7113559246063232 94.00005340576172 96.57657623291016" enable-background="new 0 0 100 100" xml:space="preserve" height="108.61804205027197" width="105.72027039902007" class="icon-icon-0" data-fill-palette-color="accent" id="icon-0"><path d="M65.454 3.129c-0.026-0.735-0.647-1.442-1.385-1.417L50.721 2.185c-0.738 0.026-1.307 0.858-1.281 1.597l0.321 9.046 16.017-0.569L65.454 3.129z" fill="#ba3b0a" data-fill-palette-color="accent"></path><rect x="51.172" y="17.86" transform="matrix(0.9994 -0.0353 0.0353 0.9994 -1.82 2.1228)" width="16.026" height="69.45" fill="#ba3b0a" data-fill-palette-color="accent"></rect><path d="M52.745 97.213c0.026 0.73 0.636 1.096 1.375 1.074l13.348-0.475c0.738-0.026 1.317-0.517 1.292-1.252l-0.149-4.216-16.016 0.563L52.745 97.213z" fill="#ba3b0a" data-fill-palette-color="accent"></path><path d="M3 96.743c0 0.735 0.597 1.336 1.335 1.336h13.355c0.738 0 1.336-0.601 1.336-1.336V39.314H3V96.743z" fill="#ba3b0a" data-fill-palette-color="accent"></path><path d="M19.027 13.938c0-0.738-0.598-1.335-1.336-1.335H4.336C3.598 12.603 3 13.201 3 13.938v9.349h16.027V13.938z" fill="#ba3b0a" data-fill-palette-color="accent"></path><path d="M45.738 24.753c0-0.738-0.597-1.335-1.335-1.335H25.705c-0.738 0-1.335 0.597-1.335 1.335v9.219h21.369V24.753z" fill="#ba3b0a" data-fill-palette-color="accent"></path><path d="M24.37 44.657v52.086c0 0.735 0.597 1.336 1.335 1.336h18.698c0.738 0 1.335-0.601 1.335-1.336V44.657H24.37z" fill="#ba3b0a" data-fill-palette-color="accent"></path><path d="M81.102 96.926c0.104 0.735 0.777 1.241 1.513 1.138l13.22-1.879c0.73-0.104 1.252-0.673 1.153-1.408l-8.833-62.25-15.87 2.254L81.102 96.926z" fill="#ba3b0a" data-fill-palette-color="accent"></path><path d="M86.09 17.979c-0.104-0.73-0.777-1.237-1.508-1.132l-13.225 1.875c-0.73 0.102-1.252 0.673-1.148 1.403l1.325 9.362 15.87-2.251L86.09 17.979z" fill="#ba3b0a" data-fill-palette-color="accent"></path></svg></g></svg></g><g></g></svg></g><defs></defs></svg></g></svg>